<?xml version="1.0" standalone="no"?>
<!DOCTYPE svg PUBLIC "-//W3C//DTD SVG 20010904//EN"
 "http://www.w3.org/TR/2001/REC-SVG-20010904/DTD/svg10.dtd">
<svg version="1.0" xmlns="http://www.w3.org/2000/svg"
 width="450.000000pt" height="340.000000pt" viewBox="0 0 450.000000 340.000000"
 preserveAspectRatio="xMidYMid meet">
<metadata>
Created by potrace 1.10, written by Peter Selinger 2001-2011
</metadata>
<g transform="translate(0.000000,340.000000) scale(0.050000,-0.050000)"
fill="#000000" stroke="none">
<path d="M3330 6495 c-88 -8 -196 -19 -240 -23 -44 -4 -80 -10 -80 -11 0 -5
-74 -23 -105 -26 -14 -1 -25 -9 -25 -18 0 -9 -17 -17 -39 -17 -21 0 -44 -9
-51 -20 -7 -11 -27 -20 -44 -20 -38 0 -206 -82 -206 -101 0 -7 -36 -29 -80
-49 -44 -20 -80 -43 -80 -52 0 -9 -13 -12 -30 -5 -16 6 -30 1 -30 -12 0 -13
-9 -18 -20 -11 -11 7 -20 -1 -20 -16 0 -40 -121 -156 -146 -140 -11 7 -14 2
-6 -11 8 -13 7 -23 -3 -23 -9 0 -31 -25 -50 -55 -18 -30 -56 -80 -85 -110 -28
-30 -46 -55 -39 -55 6 0 -7 -26 -30 -58 -22 -32 -41 -67 -41 -77 0 -10 -18
-35 -41 -56 -22 -20 -36 -48 -30 -63 5 -14 1 -26 -10 -26 -10 0 -19 -17 -19
-39 0 -21 -8 -43 -17 -49 -25 -16 -57 -159 -66 -297 -3 -41 -10 -75 -16 -75
-6 0 -13 -59 -15 -131 -2 -77 4 -125 15 -118 11 6 19 -3 19 -21 0 -20 -9 -27
-25 -18 -14 8 -10 -3 9 -24 33 -38 23 -95 -16 -88 -9 2 -20 -7 -25 -20 -4 -12
7 -20 24 -16 17 3 33 -3 37 -14 3 -11 -7 -21 -24 -22 -16 -1 -39 -4 -50 -7
-11 -3 -40 -4 -65 -2 -25 2 -79 -8 -120 -22 -41 -14 -81 -26 -88 -26 -8 -1
-20 -8 -29 -16 -8 -8 -30 -15 -50 -15 -19 0 -40 -11 -46 -25 -9 -20 -15 -19
-24 2 -9 19 -27 12 -69 -28 -32 -31 -53 -63 -47 -73 6 -9 -1 -15 -16 -11 -14
3 -24 -7 -21 -21 4 -15 -2 -22 -12 -16 -10 6 -35 -9 -55 -33 -37 -44 -37 -44
2 -15 39 30 39 29 4 -26 -20 -30 -31 -63 -25 -73 7 -10 4 -23 -6 -29 -10 -6
-25 -41 -33 -77 -8 -36 -18 -78 -22 -95 -26 -104 -9 -282 32 -339 23 -34 36
-61 28 -61 -9 0 2 -14 23 -31 22 -18 28 -26 14 -19 -42 21 -28 -27 15 -50 22
-12 40 -33 40 -47 0 -26 160 -116 218 -122 18 -2 46 -9 62 -16 62 -24 245 -20
261 7 14 22 122 17 139 -6 6 -7 33 -16 60 -20 28 -4 61 -14 75 -23 16 -10 21
-6 14 13 -13 33 100 87 160 77 48 -8 90 -62 77 -97 -6 -14 0 -26 13 -26 13 0
18 -9 11 -20 -7 -12 -21 -15 -31 -9 -20 12 -23 -15 -27 -248 -3 -123 3 -150
31 -160 19 -7 33 -17 32 -23 -6 -24 72 -120 98 -120 16 0 24 -9 17 -20 -7 -11
-4 -20 7 -20 11 0 16 -36 12 -79 -5 -45 2 -90 16 -105 42 -44 80 -131 67 -152
-7 -11 -1 -25 13 -31 14 -5 4 -11 -21 -11 -26 -1 -41 -10 -35 -20 6 -11 -3
-33 -20 -50 -23 -24 -26 -40 -10 -70 14 -26 14 -44 1 -52 -13 -8 -13 -25 -1
-49 11 -19 13 -43 5 -51 -8 -9 6 -5 30 7 61 32 71 29 47 -16 -26 -49 -26 -61
0 -61 12 0 16 9 9 20 -7 11 -3 20 9 20 12 0 21 -25 20 -55 0 -30 4 -86 11
-125 6 -38 13 -80 14 -93 1 -13 20 -35 41 -50 82 -57 93 -68 99 -97 8 -42 71
-85 99 -68 15 9 18 5 8 -10 -9 -15 -5 -23 12 -21 169 23 333 -43 276 -112 -18
-22 -18 -29 0 -29 13 0 17 -10 10 -21 -8 -14 -24 -8 -42 15 -17 20 -25 25 -18
12 6 -13 -3 -32 -21 -42 -18 -10 -25 -24 -14 -30 11 -7 14 -55 6 -112 -12 -92
-9 -101 38 -122 28 -13 41 -29 29 -36 -37 -26 -48 -83 -13 -70 23 9 20 -4 -15
-50 -25 -35 -61 -68 -80 -74 -45 -15 -85 -104 -55 -122 14 -9 17 -5 6 12 -11
17 -8 21 7 12 13 -8 23 -30 24 -48 1 -64 104 -144 164 -128 8 2 15 -4 15 -14
0 -10 19 -13 43 -7 33 9 39 5 26 -17 -13 -22 -11 -23 12 -5 36 30 219 28 220
-1 1 -12 8 -5 17 15 13 36 16 36 48 4 21 -21 34 -25 34 -10 0 18 7 18 30 -1
17 -14 30 -17 30 -7 0 10 24 20 53 23 86 7 203 67 214 110 7 25 22 35 41 27
17 -6 36 -3 43 8 6 10 20 19 31 19 11 0 14 -10 7 -22 -10 -15 -1 -15 29 1 41
22 53 9 44 -45 -2 -10 8 -10 21 -2 16 10 20 2 13 -27 -9 -31 -2 -40 31 -40 24
0 66 -7 93 -15 28 -8 140 -17 250 -21 110 -4 209 -8 220 -9 50 -5 230 58 230
80 0 10 19 23 43 31 146 46 -592 97 -778 53 -106 -25 -109 -4 -10 87 181 167
486 171 671 8 164 -144 236 -113 109 47 -36 45 -63 87 -62 93 2 6 -2 16 -8 21
-6 6 -5 -1 3 -15 8 -14 6 -25 -5 -25 -40 0 -37 56 6 146 25 51 53 87 63 79 10
-8 2 4 -18 27 -20 24 -34 51 -32 60 7 30 -40 128 -61 128 -12 0 -17 20 -12 45
4 25 9 53 10 62 0 10 14 12 31 6 20 -8 34 5 42 38 14 57 10 55 78 29 38 -14
48 -14 38 3 -9 15 9 19 58 14 39 -5 67 -2 61 7 -5 9 5 16 22 16 17 0 31 9 31
20 0 11 8 20 18 20 11 0 46 27 79 60 33 33 55 60 49 60 -6 0 2 20 18 45 46 71
55 131 23 143 -37 15 0 92 45 92 17 0 25 9 18 20 -7 12 13 20 49 20 33 0 61
-9 61 -20 0 -11 11 -20 23 -20 13 0 40 -15 60 -33 21 -18 37 -24 37 -13 0 10
34 21 75 22 215 9 319 19 353 34 28 12 34 10 24 -7 -11 -18 -2 -21 33 -13 26
7 60 14 76 17 16 2 40 11 54 20 14 8 25 7 25 -4 0 -10 13 -24 29 -30 19 -7 25
-1 18 18 -13 34 122 43 143 9 15 -25 90 -27 90 -2 0 10 19 13 43 7 26 -7 38
-3 31 9 -7 11 20 21 67 23 44 1 79 -7 79 -19 0 -11 14 -7 31 10 20 20 58 28
109 24 55 -5 81 2 89 23 7 19 29 26 60 20 29 -5 47 0 45 13 -2 12 19 19 51 15
34 -3 55 4 55 19 0 14 6 19 13 11 7 -7 26 5 41 27 16 22 50 40 77 40 27 0 49
9 49 20 0 11 11 20 25 21 79 2 375 390 375 491 0 17 8 25 18 19 10 -6 24 14
31 44 8 30 25 61 38 69 17 11 16 15 -3 16 -15 0 -21 9 -14 20 13 20 36 328 32
420 -1 33 4 41 15 24 13 -20 23 -18 45 9 15 19 17 28 4 21 -13 -8 -29 -5 -37
8 -16 25 133 18 153 -8 17 -23 156 -33 170 -12 6 10 19 13 29 7 11 -6 19 -3
19 8 0 10 21 24 46 30 57 14 122 70 140 119 8 20 21 32 30 26 20 -12 17 119
-4 182 -9 28 1 76 27 134 23 49 41 109 41 132 0 23 8 38 17 32 10 -6 13 10 8
36 -5 26 1 53 13 61 33 20 26 144 -10 180 -17 17 -33 43 -35 56 -6 37 -97 155
-120 155 -11 0 -36 14 -55 32 -19 17 -51 34 -71 38 -20 4 -37 8 -37 10 0 25
-194 7 -247 -23 -36 -21 -74 -33 -83 -27 -9 6 -20 1 -24 -11 -3 -11 -27 -22
-51 -24 -25 -2 -45 -10 -45 -17 0 -8 -18 -10 -40 -4 -22 6 -35 19 -29 28 6 10
2 18 -9 18 -11 0 -25 -9 -32 -20 -20 -32 -296 -25 -341 9 -22 17 -55 30 -74
30 -19 1 -35 14 -35 29 0 54 -156 44 -210 -13 -14 -14 -12 -16 5 -7 14 8 25 5
25 -7 0 -27 -46 -27 -73 0 -12 12 -34 24 -49 27 -137 27 -178 38 -178 50 0 12
-334 13 -360 2 -5 -3 -16 -4 -24 -3 -8 2 -38 -6 -67 -17 -60 -23 -138 8 -116
46 7 13 6 17 -3 9 -21 -19 -73 24 -59 47 6 10 -2 18 -19 18 -21 0 -26 11 -18
33 10 26 5 31 -21 21 -27 -11 -33 -2 -29 46 4 49 9 54 35 34 23 -18 22 -10 -5
32 -25 39 -32 75 -23 122 7 38 4 73 -7 80 -11 7 -16 30 -10 52 6 22 2 51 -9
65 -11 14 -17 70 -15 125 3 66 -1 86 -11 60 -14 -35 -16 -33 -18 15 0 30 -10
55 -21 55 -11 0 -20 14 -20 31 0 19 10 26 25 19 14 -7 11 -1 -7 14 -47 39 -85
116 -57 116 12 0 7 15 -11 33 -18 17 -27 46 -20 64 7 17 6 25 -2 18 -23 -24
-67 25 -53 60 8 21 4 27 -12 17 -14 -9 -32 7 -48 42 -13 31 -33 63 -45 71 -11
8 -13 15 -4 15 9 0 -34 51 -95 113 -61 62 -111 120 -111 127 0 16 -151 122
-205 144 -19 8 -35 26 -35 40 -1 18 -6 17 -20 -4 -16 -25 -19 -24 -20 6 0 20
-8 31 -18 25 -11 -6 -32 2 -48 18 -16 16 -35 24 -42 17 -6 -7 -12 -2 -12 12 0
13 -9 19 -20 12 -11 -7 -20 -4 -20 7 0 11 -19 14 -43 8 -27 -7 -39 -4 -30 10
7 11 -1 26 -18 33 -18 6 -26 3 -19 -8 7 -11 3 -20 -9 -20 -12 0 -27 12 -32 26
-7 17 -32 24 -67 19 -34 -5 -68 4 -89 24 -18 19 -42 28 -54 21 -11 -8 -32 -5
-45 6 -32 25 -564 65 -604 45 -36 -18 -130 -17 -130 2 0 12 -13 12 -33 1 -19
-11 -64 -11 -113 0 -48 10 -88 10 -99 -1 -10 -10 -47 -12 -82 -5 -34 7 -135 6
-223 -3z m1380 -203 c694 -197 1138 -786 1140 -1508 0 -296 -6 -309 -130 -299
-67 5 -70 9 -83 102 -26 178 -185 333 -342 333 -54 0 -51 -7 -128 270 -31 111
-184 362 -290 478 -745 813 -2133 468 -2390 -595 -19 -75 -43 -139 -55 -143
-12 -3 -60 -16 -106 -28 -170 -46 -285 -202 -286 -388 0 -157 -138 -164 -177
-9 -207 823 391 1680 1267 1816 203 32 1448 9 1580 -29z m-634 -383 c323 -64
609 -269 819 -587 128 -194 105 -220 -61 -70 -234 210 -450 268 -993 268 -535
-1 -786 -70 -1015 -282 -47 -43 -94 -78 -104 -78 -26 0 -47 35 -26 43 8 4 58
72 111 151 289 438 779 653 1269 555z m314 -628 c228 -74 450 -246 589 -456
85 -128 92 -170 51 -307 -61 -200 -93 -238 -205 -238 -52 -1 -135 -19 -184
-41 -51 -23 -102 -34 -120 -26 -17 8 -107 20 -201 26 l-170 11 -11 90 c-16
140 -16 140 -261 140 -259 0 -331 -40 -307 -171 16 -84 -6 -95 -121 -56 -162
55 -421 4 -509 -102 -79 -94 -301 274 -301 499 0 242 384 576 760 660 211 47
808 30 990 -29z m-1944 -676 c7 -64 26 -154 42 -200 l30 -85 -77 0 c-194 0
-281 225 -138 358 85 80 130 57 143 -73z m2917 93 c158 -84 110 -325 -75 -376
-103 -29 -120 -6 -80 110 17 52 32 139 32 192 0 104 32 123 123 74z m-1313
-338 c7 -11 3 -20 -9 -20 -11 0 -21 -20 -21 -45 0 -25 -18 -138 -40 -251 -48
-246 -49 -264 -10 -264 17 0 30 -9 30 -20 0 -32 104 -23 143 13 45 41 47 67 5
67 -36 0 -23 186 17 235 14 17 13 25 -3 25 -28 0 -35 -20 -52 -145 -9 -67 -22
-95 -44 -95 -30 0 -25 168 8 253 18 46 372 38 359 -8 -6 -19 -21 -87 -33 -150
-20 -101 -29 -115 -70 -115 -62 0 -135 -92 -118 -148 27 -91 60 -141 99 -151
107 -29 49 -132 -70 -125 -61 3 -117 17 -125 30 -12 18 -15 18 -16 -1 0 -14
-13 -25 -30 -25 -16 0 -30 11 -30 25 0 14 -6 59 -13 100 -7 46 -4 75 8 75 12
0 31 -34 43 -75 l21 -75 -9 77 c-10 95 -4 88 -103 104 -80 13 -82 12 -91 -49
-6 -42 -1 -62 17 -62 32 0 73 -74 57 -100 -27 -44 -336 -24 -324 20 6 22 2 40
-8 40 -10 0 -18 -18 -18 -40 0 -23 -13 -40 -31 -40 -52 0 -29 109 24 116 37 5
46 30 75 200 18 107 48 286 68 399 20 113 30 205 22 205 -7 0 -23 -69 -36
-152 -25 -168 -35 -195 -65 -176 -23 14 -5 243 25 322 18 50 319 72 348 26z
m2025 -5 c-6 -14 -26 -95 -44 -179 -29 -128 -42 -155 -77 -160 -36 -5 -48 -35
-88 -216 -54 -250 -54 -260 -17 -260 40 0 56 -33 41 -81 -12 -37 -27 -40 -156
-35 -176 7 -191 36 -85 161 110 128 28 249 -139 207 -89 -23 -145 -232 -62
-232 65 0 98 -75 49 -107 -72 -47 -153 -61 -187 -33 -17 14 -30 18 -30 10 0
-8 -13 -4 -30 10 -164 136 40 720 252 720 78 0 74 -26 -10 -56 -82 -30 -159
-140 -199 -287 -36 -130 -60 -306 -34 -247 10 22 19 60 20 85 6 192 163 445
277 445 63 0 65 -4 93 -127 20 -88 29 -58 52 167 12 114 26 215 31 224 18 29
354 20 343 -9z m1162 -62 c13 -15 17 -33 9 -40 -20 -20 -242 -15 -255 6 -33
53 203 86 246 34z m-5164 -38 c-7 -25 -27 -110 -46 -189 l-34 -144 -225 12
c-256 14 -332 -6 -379 -96 -31 -59 -39 -193 -14 -229 35 -49 146 -109 198
-106 54 2 54 3 7 11 -66 12 -101 46 -48 46 22 0 58 13 79 29 42 32 129 42 129
14 0 -9 -22 -28 -50 -43 -27 -15 -46 -30 -42 -35 5 -5 30 3 55 16 46 25 47 24
10 -17 -104 -117 -344 -143 -456 -49 -36 30 -58 44 -50 30 8 -14 6 -25 -5 -25
-83 0 -131 323 -73 485 91 257 242 333 668 334 l288 1 -12 -45z m4624 33 c34
-7 57 -21 51 -30 -5 -10 12 -18 39 -18 199 0 269 -343 121 -595 -125 -213
-507 -331 -687 -210 -28 18 -56 32 -63 30 -99 -28 -189 365 -110 485 18 27 32
62 32 79 0 162 355 311 617 259z m1570 -53 c-37 -58 -27 -95 24 -95 41 0 48
-7 39 -45 -6 -25 -22 -103 -36 -175 -23 -118 -30 -131 -79 -136 -45 -5 -56
-19 -66 -80 -7 -41 -16 -89 -21 -107 -10 -36 36 -62 82 -44 22 8 30 -2 30 -38
0 -70 -49 -103 -157 -104 l-93 -1 5 175 c5 163 2 175 -35 175 -31 0 -41 14
-43 65 -3 60 -4 61 -11 10 -5 -31 -21 -55 -37 -55 -35 0 -35 -12 1 158 16 77
24 155 17 171 -8 23 2 31 41 31 43 0 55 12 65 60 12 60 13 60 151 60 106 0
135 -6 123 -25z m-5647 -75 c40 -13 30 -16 -50 -18 -251 -7 -408 -181 -440
-488 -13 -127 20 -55 39 86 30 219 181 365 391 377 224 12 289 -104 218 -388
l-23 -89 -227 0 c-204 0 -228 -4 -228 -35 0 -59 125 -129 213 -120 l77 8 -84
4 c-98 4 -140 43 -46 43 34 0 103 10 152 23 106 26 111 23 91 -53 -44 -165
-546 -145 -617 25 -133 319 216 727 534 625z m789 2 c28 -11 3 -19 -84 -27
-296 -27 -524 -434 -376 -673 28 -46 -29 -20 -61 28 -55 84 -24 354 59 501 78
139 317 228 462 171z m1561 -2 c32 -14 23 -18 -40 -19 -213 -4 -355 -110 -420
-312 -43 -134 -50 -317 -15 -352 18 -18 19 -6 3 51 -76 274 159 592 437 592
204 0 260 -125 180 -405 l-21 -75 -227 0 c-254 0 -275 -14 -163 -107 48 -40
84 -52 145 -50 80 3 80 4 11 11 -119 13 -136 32 -40 46 50 8 124 21 166 29
151 31 84 -109 -70 -146 -377 -92 -627 104 -476 373 10 19 29 74 42 124 46
185 312 316 488 240z m2397 -255 c-59 -303 -59 -332 3 -373 68 -45 63 -69 -23
-105 -169 -70 -294 35 -255 215 24 112 67 127 70 25 l2 -77 17 70 c18 76 10
92 -51 103 -34 6 -42 30 -56 166 -21 216 -25 211 172 211 l168 0 -47 -235z
m453 210 c0 -14 -23 -137 -50 -273 -59 -293 -58 -282 -20 -282 33 0 41 -72 13
-116 -21 -33 -286 -25 -297 9 -5 13 20 55 54 94 81 92 105 213 42 213 -46 0
-46 7 -2 255 8 47 8 85 0 85 -9 0 -21 -43 -29 -95 -27 -198 -35 -225 -66 -225
-24 0 -28 16 -18 75 7 41 19 122 26 180 l13 105 167 0 c120 0 167 -7 167 -25z
m-4312 -18 c92 -42 112 -199 50 -392 l-21 -65 -229 0 c-256 0 -280 -16 -159
-108 49 -37 90 -51 145 -49 66 3 68 4 16 11 -108 14 -124 32 -40 47 44 7 121
21 170 30 83 14 88 13 63 -18 -16 -18 -22 -33 -15 -33 58 0 -45 -77 -128 -96
-372 -86 -490 29 -388 377 74 252 327 392 536 296z m3543 -312 c-25 -26 -35
18 -19 89 l17 76 7 -77 c4 -42 2 -82 -5 -88z m-2933 3 c-25 -30 -78 -38 -78
-12 0 30 45 61 73 50 21 -8 23 -17 5 -38z m-2134 22 c5 -6 -10 -98 -34 -205
l-43 -195 -82 -6 -81 -6 10 118 11 119 -75 14 c-65 12 -73 19 -65 62 5 27 2
49 -8 49 -9 0 -17 -22 -17 -50 0 -37 -11 -50 -40 -50 -45 0 -48 15 -21 88 18
47 30 51 175 57 86 4 179 9 208 11 28 2 56 -1 62 -6z m3686 -126 c-17 -70 -86
-164 -120 -164 -44 0 -59 43 -23 64 18 10 52 54 74 98 44 85 91 87 69 2z
m1899 37 c18 -28 -36 -145 -87 -190 -64 -57 -106 -9 -47 54 23 25 52 70 63
100 21 56 50 70 71 36z m399 -18 c-1 -12 -3 -83 -5 -155 -3 -116 -7 -130 -33
-108 -50 42 -34 311 18 294 12 -4 21 -18 20 -31z m-5098 -333 c79 -69 79 -69
26 -70 -34 0 -68 19 -95 53 -83 106 -45 115 69 17z m1465 -5 c-41 -4 -109 -4
-150 0 -41 5 -7 8 75 8 83 0 116 -3 75 -8z m2703 -54 c18 -15 57 -52 88 -80
31 -28 66 -46 78 -38 12 7 18 5 12 -5 -5 -10 6 -33 26 -52 25 -24 39 -27 47
-10 6 13 7 -6 1 -42 -6 -41 -2 -61 10 -54 11 7 20 -7 20 -30 0 -23 -7 -38 -17
-32 -9 6 -16 -2 -16 -18 0 -16 9 -23 19 -16 13 8 14 2 2 -16 -24 -39 -24 -63
1 -97 15 -21 15 -25 -2 -15 -13 8 -28 0 -35 -17 -6 -18 -3 -26 8 -19 31 19 24
0 -20 -50 -21 -25 -34 -53 -28 -63 6 -9 1 -17 -10 -17 -11 0 -35 -27 -55 -59
-19 -32 -42 -54 -51 -49 -9 6 -22 -4 -29 -22 -7 -18 -25 -27 -41 -21 -15 6
-23 3 -17 -7 6 -10 -21 -24 -59 -31 -39 -7 -70 -21 -70 -30 0 -10 -18 -13 -40
-7 -22 6 -52 1 -66 -11 -16 -13 -52 -15 -99 -4 -49 11 -84 8 -109 -8 -21 -15
-88 -23 -161 -20 -68 2 -119 -4 -113 -13 5 -10 -13 -18 -41 -18 -28 0 -51 11
-51 25 -1 19 -4 20 -16 1 -17 -27 -106 -41 -363 -57 -96 -5 -205 -19 -241 -29
-73 -21 -108 -10 -86 26 9 17 4 17 -17 -1 -17 -13 -38 -18 -47 -10 -9 8 -10 4
-2 -10 8 -14 25 -20 38 -12 18 9 18 6 0 -13 -20 -21 -30 -22 -55 -1 -37 31
-41 101 -6 102 15 0 12 8 -7 19 -23 13 -30 40 -25 89 7 62 2 71 -38 73 -36 2
-33 5 15 17 33 7 80 7 104 -2 46 -16 167 -22 236 -12 64 9 226 128 232 170 4
25 51 85 60 77 24 -24 -3 119 -49 265 -50 157 -54 218 -12 192 11 -6 19 -2 19
9 0 33 176 12 218 -26 52 -47 342 -83 342 -42 0 11 9 7 19 -9 16 -26 23 -25
55 2 35 31 106 59 166 66 17 2 71 23 120 47 107 51 117 52 158 15z m594 -40
c136 -187 -3 -707 -257 -959 -255 -251 -326 -271 -1205 -342 -352 -28 -658
-53 -680 -56 -44 -4 -72 152 -34 190 10 10 342 50 736 89 662 65 727 75 840
127 334 152 500 503 400 845 -17 61 -32 122 -32 136 0 38 201 12 232 -30z
m-5027 -16 c47 -44 48 -51 36 -295 l-11 -250 -195 -6 c-160 -4 -198 0 -207 25
-22 55 27 327 78 438 53 115 51 114 218 130 19 2 55 -17 81 -42z m3143 -115
c33 -33 3 -40 -72 -17 -185 57 -226 -32 -42 -93 197 -65 246 -164 126 -254
-101 -74 -420 -49 -420 34 0 24 11 24 72 -2 86 -36 198 -30 198 10 0 16 -46
44 -108 65 -294 100 -177 350 137 293 49 -9 98 -25 109 -36z m-1848 -159 l0
-199 125 -6 c211 -10 132 -46 -115 -52 l-230 -5 0 230 0 231 110 0 110 0 0
-199z m721 -13 c49 -117 92 -220 96 -230 8 -22 -198 -24 -228 -3 -12 8 -33 45
-48 81 -39 97 -156 88 -191 -15 -23 -71 -70 -107 -70 -55 0 26 129 379 153
419 5 8 52 15 104 15 l94 0 90 -212z m639 172 c47 -47 49 -72 13 -142 -23 -43
-23 -57 0 -89 90 -122 -14 -189 -294 -189 l-215 0 -8 215 c-4 118 -5 222 -1
230 18 38 464 16 505 -25z m-1744 -124 c5 -77 -1 -97 -35 -115 -38 -21 -41
-41 -41 -302 l0 -279 100 0 100 0 0 130 0 130 248 0 249 0 42 -68 c85 -138
258 -132 348 13 32 51 43 55 171 55 166 0 162 7 162 -272 l0 -208 -1008 0
-1008 0 -8 495 c-4 272 -4 502 0 510 4 9 157 13 340 10 l334 -5 6 -94z m616
41 c-19 -95 -55 -132 -76 -77 -24 66 1 140 49 140 34 0 38 -9 27 -63z m-1496
-652 l6 -105 -99 0 c-108 0 -123 15 -123 128 0 86 12 95 119 88 l91 -6 6 -105z
m2620 0 l6 -105 -99 0 c-108 0 -123 15 -123 128 0 86 12 95 119 88 l91 -6 6
-105z m136 -145 c-8 17 -1 13 16 -8 36 -44 29 -63 -28 -78 -34 -9 -40 -1 -40
50 0 55 3 58 34 33 29 -23 32 -23 18 3z m-2782 -155 c12 -8 32 -40 45 -70 13
-30 52 -72 86 -93 84 -51 57 -61 -135 -48 -176 12 -185 20 -186 148 0 75 119
114 190 63z m2626 -2 c17 -11 24 -48 20 -105 l-6 -88 -200 -11 c-110 -6 -191
-14 -180 -16 24 -6 -60 -43 -127 -55 -28 -6 -41 -1 -33 11 7 12 1 21 -12 21
-15 0 -9 15 14 37 38 36 118 36 96 -1 -8 -11 2 -11 25 1 20 11 66 30 102 44
44 16 71 44 88 90 14 37 39 71 56 76 55 15 130 13 157 -4z m-2229 -234 c-6
-16 -19 -29 -28 -29 -8 0 -30 -5 -47 -12 -18 -7 -32 -2 -32 12 0 13 18 28 40
34 22 6 40 19 40 30 0 10 9 13 19 7 11 -7 14 -25 8 -42z m1413 28 c0 -10 -34
-32 -75 -49 -41 -16 -128 -54 -193 -84 -173 -79 -370 -75 -560 12 -76 35 -150
64 -166 64 -49 0 -114 43 -89 58 36 23 1083 22 1083 -1z m-1084 -217 c315
-145 302 -133 286 -270 l-12 -100 -285 -6 -285 -5 0 185 c0 103 -6 221 -13
264 -8 47 -5 74 6 70 11 -5 147 -66 303 -138z m1324 -140 l0 -240 -288 0
c-321 0 -311 -5 -312 157 0 53 10 69 45 78 25 7 144 63 265 125 309 160 290
167 290 -120z m-1828 155 c19 -19 12 -244 -8 -250 -56 -19 -322 209 -296 252
11 18 286 16 304 -2z m2326 6 c31 -19 -23 -89 -142 -182 -150 -119 -176 -110
-176 60 l0 138 149 -1 c81 -1 158 -8 169 -15z m-1270 -416 c7 -118 23 -285 34
-371 29 -225 -30 -335 -128 -237 -40 40 -40 49 -17 307 12 146 23 317 23 379
0 277 70 215 88 -78z m-305 -305 c-9 -138 7 -129 -179 -102 -115 17 -185 17
-254 2 -113 -25 -102 -36 -117 106 l-13 115 285 -5 285 -6 -7 -110z m1073 -7
l6 -117 -86 17 c-104 20 -336 14 -403 -12 -51 -19 -72 34 -73 185 l0 55 275
-5 275 -6 6 -117z m-1193 -301 c73 -26 237 -143 237 -169 0 -7 -184 -13 -410
-13 -436 0 -442 2 -326 95 134 109 338 145 499 87z"/>
<path d="M3268 5000 c-122 -49 -161 -198 -78 -296 154 -183 425 -11 326 207
-40 88 -152 128 -248 89z"/>
<path d="M4280 5007 c-177 -70 -156 -341 29 -376 184 -34 308 178 186 319 -45
52 -155 81 -215 57z"/>
<path d="M3770 3960 c17 -28 -47 -422 -74 -454 -15 -18 -15 -26 0 -26 35 0 46
32 75 226 34 222 36 274 8 274 -12 0 -16 -9 -9 -20z"/>
<path d="M5794 4307 c-6 -21 -16 -73 -23 -117 -24 -155 -34 -190 -53 -179 -10
6 -18 -26 -18 -71 0 -169 49 -73 83 162 30 212 35 292 11 205z"/>
<path d="M1489 4239 c-183 -54 -313 -251 -321 -489 l-5 -160 16 151 c34 330
189 478 521 500 l190 12 -170 2 c-93 1 -197 -7 -231 -16z"/>
<path d="M6487 4259 c-251 -49 -416 -265 -414 -539 1 -96 48 -240 78 -240 6 0
-4 27 -20 59 -133 257 106 699 379 701 33 0 74 9 90 20 37 24 12 24 -113 -1z"/>
<path d="M6395 3909 c-166 -91 -146 -312 35 -398 173 -82 382 97 340 291 -25
112 -248 175 -375 107z m345 -161 c0 -149 -170 -291 -274 -230 -32 19 -31 21
11 21 90 2 203 141 203 251 0 82 4 92 30 70 18 -15 30 -59 30 -112z"/>
<path d="M8069 4210 c-5 -16 -13 -43 -18 -60 -6 -16 -27 -30 -49 -30 -51 0
-60 -17 -72 -133 l-9 -97 19 89 c21 99 32 114 90 124 26 5 42 26 46 61 6 46
17 55 80 62 l74 7 -76 4 c-52 2 -78 -6 -85 -27z"/>
<path d="M2338 3798 l-42 -42 54 -28 c62 -32 95 -37 50 -8 -22 14 -9 19 51 20
45 0 91 10 103 22 26 26 73 5 55 -23 -6 -11 -36 -19 -65 -19 -30 0 -67 -9 -84
-20 -41 -27 59 -27 129 0 72 27 64 77 -18 111 -99 41 -184 36 -233 -13z"/>
<path d="M4675 3795 l-45 -45 128 -6 c83 -4 134 2 143 18 8 13 25 17 37 9 39
-24 2 -51 -69 -51 -38 0 -69 -8 -69 -18 0 -19 130 -11 163 10 45 28 14 83 -60
105 -115 34 -178 28 -228 -22z"/>
<path d="M7133 4084 c-6 -8 -15 -74 -20 -145 l-11 -129 22 130 c12 72 32 137
44 145 15 10 15 14 -2 15 -13 0 -28 -7 -33 -16z"/>
<path d="M3135 3818 c-77 -44 -40 -78 85 -78 67 0 120 9 120 20 0 11 14 20 30
20 17 0 30 -13 30 -30 0 -21 -21 -30 -70 -30 -38 0 -70 -7 -70 -16 0 -8 36
-12 80 -7 68 6 80 14 80 54 0 71 -198 118 -285 67z"/>
<path d="M1736 3765 c47 -4 119 -4 160 0 40 5 2 8 -86 8 -88 0 -122 -3 -74 -8z"/>
<path d="M4320 3002 c0 -10 -5 -33 -12 -50 -9 -23 0 -32 30 -32 44 0 50 15 30
68 -13 34 -48 44 -48 14z"/>
<path d="M4976 3069 c-9 -76 7 -100 55 -81 60 23 26 152 -40 152 -4 0 -10 -32
-15 -71z"/>
<path d="M4980 2859 c0 -67 6 -81 35 -75 43 8 60 114 22 139 -47 29 -57 19
-57 -64z"/>
<path d="M3040 2610 l0 -290 100 0 100 0 0 290 0 290 -100 0 -100 0 0 -290z"/>
<path d="M7660 5734 c0 -9 -16 -14 -35 -11 -61 8 -129 -24 -117 -56 6 -16 3
-24 -8 -17 -10 6 -35 -7 -54 -29 -19 -23 -46 -41 -60 -41 -15 0 -26 -13 -26
-29 0 -16 -18 -39 -41 -51 -22 -12 -35 -30 -29 -39 5 -10 -1 -21 -14 -26 -14
-4 -26 -34 -28 -66 -4 -88 -6 -93 -31 -77 -16 10 -18 5 -6 -13 9 -15 19 -87
21 -158 2 -72 6 -135 8 -141 3 -5 4 -17 2 -25 -1 -8 8 -15 19 -15 12 0 16 -9
9 -20 -7 -11 -4 -20 7 -20 10 0 24 -23 31 -50 8 -31 55 -78 122 -123 61 -40
110 -82 110 -93 0 -11 6 -15 13 -8 6 7 43 -1 81 -16 38 -16 75 -28 82 -27 8 1
19 0 24 -3 29 -12 120 -12 120 1 0 9 38 22 85 30 87 15 173 59 201 104 9 14
25 21 35 14 11 -6 19 7 19 28 0 22 16 45 36 52 20 6 49 42 64 80 15 38 34 65
43 59 20 -12 20 -12 25 136 2 63 10 120 17 128 8 8 5 26 -8 41 -12 15 -16 27
-9 27 7 0 0 26 -17 57 -16 32 -24 64 -17 70 7 7 2 13 -10 13 -13 0 -17 14 -11
31 7 17 4 28 -6 25 -9 -3 -20 3 -23 14 -4 11 -20 27 -36 36 -16 9 -24 24 -19
33 6 9 -3 22 -20 29 -18 6 -25 22 -18 34 9 15 1 18 -25 10 -22 -7 -55 1 -77
20 -33 27 -34 30 -4 20 48 -15 44 2 -7 29 -32 17 -39 17 -29 0 15 -24 -64 -13
-139 20 -53 23 -250 33 -250 13z m273 -144 c389 -115 418 -682 43 -839 -185
-77 -438 -9 -543 147 -251 372 72 819 500 692z"/>
<path d="M7664 5537 c-157 -45 -284 -264 -256 -440 66 -412 677 -431 768 -23
69 303 -206 552 -512 463z m276 -102 c286 -145 177 -575 -146 -575 -335 0
-431 455 -124 592 88 39 170 34 270 -17z"/>
<path d="M7687 5341 c-166 -101 -95 -381 97 -381 228 0 297 286 94 391 -74 39
-115 36 -191 -10z m219 -41 c68 -54 85 -140 44 -219 -85 -166 -330 -97 -330
93 0 142 170 217 286 126z"/>
</g>
</svg>
